<svg width="200" height="126" viewBox="0 0 848 533" fill="none" xmlns="http://www.w3.org/2000/svg">
<path d="M355.213 0.152344H370.847V1.71542H358.653V11.4065H369.284V12.6569H358.653V24.5363H355.213V0.152344Z" fill="#231F20"/>
<path d="M382.417 0.152344H379.291V24.5363H382.417V0.152344Z" fill="#231F20"/>
<path d="M414.312 0.152344V24.5363H412.436L396.489 2.65326V24.5363H394.613V0.152344H398.365L412.436 19.2218V0.152344H414.312Z" fill="#231F20"/>
<path d="M426.192 0.152344H441.826V1.71542H429.632V11.4065H440.263V12.6569H429.632V22.9732H441.826V24.5363H426.192V0.152344Z" fill="#231F20"/>
<path d="M455.273 22.9732H467.468V24.5363H451.833V0.152344H455.273V22.9732Z" fill="#231F20"/>
<path d="M478.724 14.22L470.282 0.152344H473.721L481.226 12.6569L488.73 0.152344H490.606L481.851 14.22V24.5363H478.724V14.22Z" fill="#231F20"/>
<path d="M350.525 61.1121V65.8014H350.213C348.336 60.7995 344.584 60.1743 341.145 60.1743C336.455 60.1743 331.764 63.613 331.764 71.4284C331.764 79.2438 336.455 82.6825 341.145 82.6825C344.584 82.6825 348.336 82.0573 350.213 76.7429H350.525V81.4321C347.711 83.3078 344.584 83.933 341.145 83.933C333.953 83.933 328.012 78.9312 328.012 71.4284C328.012 63.9257 333.953 58.9238 341.145 58.9238C345.21 58.9238 348.649 59.8617 350.525 61.1121Z" fill="#231F20"/>
<path d="M364.282 83.6212H361.155V59.2373H366.784C372.099 59.2373 377.102 60.4878 377.102 65.4896C377.102 69.5536 374.288 71.1167 370.536 71.7419L379.916 83.6212H375.851L366.471 72.0545H363.969V83.6212H364.282ZM366.784 70.4914C371.161 70.4914 373.663 69.5536 373.663 65.4896C373.663 61.4256 370.848 60.4878 366.784 60.4878H364.595V70.4914H366.784Z" fill="#231F20"/>
<path d="M401.491 75.1807H391.485L388.045 83.6212H386.482L396.175 59.2373H398.676L408.37 83.6212H404.93L401.491 75.1807ZM392.423 72.9923H400.553L396.488 62.3635L392.423 72.9923Z" fill="#231F20"/>
<path d="M417.438 59.2373H433.072V60.8004H420.565V70.1788H431.509V71.7419H420.565V83.6212H417.438V59.2373Z" fill="#231F20"/>
<path d="M450.27 83.6212H447.143V60.8004H438.388V59.2373H459.025V60.8004H450.27V83.6212Z" fill="#231F20"/>
<path d="M468.405 59.2373H483.726V60.8004H471.532V70.1788H482.163V71.7419H471.532V82.0582H483.726V83.6212H468.405V59.2373Z" fill="#231F20"/>
<path d="M500.299 59.2373C508.116 59.2373 514.683 63.6139 514.683 71.4293C514.683 79.2446 508.116 83.6212 499.987 83.6212H493.733V59.2373H500.299ZM497.172 60.4878V82.0582H500.925C505.615 82.0582 511.243 79.5573 511.243 71.1167C511.243 62.6761 505.615 60.1752 500.925 60.1752H497.172V60.4878Z" fill="#231F20"/>
<path d="M270.165 499.398L260.785 496.272L254.844 503.149L253.28 502.524L270.478 482.517L272.666 483.454L273.605 509.714L270.478 508.464L270.165 499.398ZM262.035 494.396L269.852 497.209L269.54 485.955L262.035 494.396Z" fill="#231F20"/>
<path d="M286.424 513.153L283.297 512.215L289.863 488.769L295.491 490.332C300.807 491.895 305.185 494.396 303.934 499.397C302.996 503.149 299.556 503.774 295.804 503.461L301.745 517.529L297.993 516.591L292.365 502.836L289.863 502.211L286.424 513.153ZM292.052 501.273C296.117 502.524 298.931 502.211 300.182 498.46C301.432 494.396 298.931 492.833 294.866 491.895L292.677 491.269L289.863 500.961L292.052 501.273Z" fill="#231F20"/>
<path d="M317.693 521.281L314.253 520.656L319.569 498.148L311.126 496.272L311.439 494.709L331.451 499.398L331.138 500.961L322.696 498.773L317.693 521.281Z" fill="#231F20"/>
<path d="M339.918 500.961L335.641 524.967L338.719 525.515L342.997 501.509L339.918 500.961Z" fill="#231F20"/>
<path d="M360.217 517.842L358.028 516.592C353.963 514.716 352.712 511.903 353.025 509.089C353.65 505.338 357.402 503.462 361.78 504.087C364.281 504.4 366.783 505.338 368.346 506.276L367.721 511.59H367.408C366.783 507.839 364.594 505.65 361.78 505.338C358.653 505.025 356.464 506.276 356.152 508.464C355.839 510.652 356.464 512.215 359.279 513.778L361.467 515.029C365.219 516.904 368.346 519.093 367.721 523.469C367.096 527.533 363.656 530.034 358.028 529.409C354.901 529.096 352.4 528.159 350.523 526.595L351.149 521.281H351.461C352.087 525.658 354.276 527.846 358.028 528.471C362.093 529.096 364.281 527.221 364.594 524.72C365.219 521.281 363.969 519.718 360.217 517.842Z" fill="#231F20"/>
<path d="M390.234 523.157L380.228 522.532L376.164 530.66H374.6L386.169 507.214L388.671 507.527L396.175 532.536L392.736 532.223L390.234 523.157ZM381.166 520.344L389.296 520.969L385.857 510.027L381.166 520.344Z" fill="#231F20"/>
<path d="M426.194 508.464L425.882 532.848H424.005L408.371 510.652L408.059 532.535H406.183L406.808 508.151H410.56L424.318 527.846L424.631 508.464H426.194Z" fill="#231F20"/>
<path d="M458.087 520.657L455.586 520.031C451.208 518.781 449.332 516.593 449.019 513.467C448.707 509.715 452.146 506.902 456.524 506.589C459.025 506.276 461.526 506.902 463.403 507.527L463.715 512.841H463.403C462.152 509.403 459.65 507.527 456.524 507.839C453.397 508.152 451.521 509.715 451.521 512.216C451.521 514.404 452.459 515.655 455.898 516.593L458.4 517.218C462.465 518.156 465.904 519.719 466.217 524.095C466.529 528.159 463.403 531.286 457.774 531.911C454.647 532.223 452.146 531.598 449.957 530.66L449.645 525.346H449.957C451.521 529.41 454.022 531.286 457.774 530.973C461.839 530.66 463.715 528.472 463.403 525.971C463.715 523.158 462.152 521.907 458.087 520.657Z" fill="#231F20"/>
<path d="M493.108 516.28L479.976 517.843L481.539 529.41L478.099 530.035L474.973 505.651L478.412 505.339L479.663 516.28L492.796 514.717L491.545 503.776L494.672 503.15L497.798 527.534L494.672 527.847L493.108 516.28Z" fill="#231F20"/>
<path d="M532.504 508.463C534.068 515.966 529.065 521.905 522.186 523.468C515.307 525.031 508.115 521.28 506.864 513.777C505.301 506.275 510.304 500.335 517.183 498.772C524.062 497.209 530.941 500.96 532.504 508.463ZM509.991 513.152C511.555 520.967 516.87 523.468 521.56 522.531C526.251 521.593 530.315 517.529 528.752 509.401C527.189 501.585 521.873 499.084 517.183 500.022C512.493 500.96 508.428 505.024 509.991 513.152Z" fill="#231F20"/>
<path d="M539.072 494.084L554.081 490.02L554.393 491.583L542.511 494.709L545.013 504.087L555.331 501.274L555.957 502.524L545.638 505.338L548.14 515.341L560.021 512.215L560.334 513.778L545.325 517.842L539.072 494.084Z" fill="#231F20"/>
<path d="M574.718 497.835H572.216C567.526 497.835 565.337 495.96 564.399 493.146C563.148 489.707 565.65 486.269 570.027 484.705C572.529 483.768 575.03 483.768 576.906 483.768L578.47 488.769H578.157C575.968 485.643 573.154 484.705 570.34 485.643C567.213 486.581 565.963 488.769 566.588 490.958C567.213 492.833 568.464 494.084 571.903 494.084H574.405C578.47 494.084 582.535 494.709 583.785 498.773C585.036 502.837 582.847 506.588 577.532 508.151C574.718 509.089 571.903 509.402 569.715 508.777L567.839 503.775H568.151C570.653 507.214 573.467 508.464 577.219 507.214C580.971 505.963 582.222 503.15 581.597 500.961C580.659 498.773 578.782 497.835 574.718 497.835Z" fill="#231F20"/>
<path d="M314.253 427.183H311.126V451.566H314.253V427.183Z" fill="#231F20"/>
<path d="M337.392 440.627L334.891 439.689C330.513 438.126 328.95 435.938 328.95 432.812C328.95 429.06 332.389 426.56 336.767 426.56C339.268 426.56 341.77 427.185 343.646 427.81V433.124H343.333C342.082 429.373 339.894 427.81 336.767 427.81C333.64 427.81 331.764 429.373 331.764 431.874C331.764 434.062 332.702 435.313 335.829 436.563L338.33 437.501C342.082 438.752 345.834 440.627 345.834 445.004C345.834 449.068 342.395 452.194 337.079 452.194C333.953 452.194 331.451 451.569 329.262 450.318V445.004H329.575C330.826 449.068 333.327 451.256 337.079 451.256C341.144 451.256 343.02 449.068 343.02 446.567C342.708 443.441 341.144 441.878 337.392 440.627Z" fill="#231F20"/>
<path d="M366.784 451.566H363.657V428.746H354.902V427.183H375.539V428.746H366.784V451.566Z" fill="#231F20"/>
<path d="M396.488 443.126H386.482L383.043 451.566H381.479L391.173 427.183H393.674L403.367 451.566H399.928L396.488 443.126ZM387.42 440.938H395.55L391.485 430.309L387.42 440.938Z" fill="#231F20"/>
<path d="M435.262 427.183V451.566H433.386L417.439 429.683V451.566H415.563V427.183H419.315L433.386 446.252V427.183H435.262Z" fill="#231F20"/>
<path d="M456.523 427.184C461.839 427.184 466.216 428.434 466.216 433.123C466.216 436.25 463.715 438.125 460.901 438.438C464.34 438.75 467.78 440.626 467.78 444.69C467.78 450.005 462.464 451.255 456.523 451.255H450.27V426.871H456.523V427.184ZM453.709 428.434V438.125H455.272C459.65 438.125 462.777 437.813 462.777 433.123C462.777 428.747 459.65 428.434 455.272 428.434H453.709ZM455.898 450.317C460.588 450.317 464.027 450.005 464.027 445.003C464.027 440.001 460.588 439.688 455.898 439.688H453.396V450.317H455.898Z" fill="#231F20"/>
<path d="M484.351 427.183V442.813C484.351 447.815 487.478 450.316 491.855 450.316C496.858 450.316 499.673 447.815 499.673 442.501V427.183H501.236V442.501C501.236 449.378 497.484 451.879 491.23 451.879C485.289 451.879 480.912 448.753 480.912 442.813V427.183H484.351Z" fill="#231F20"/>
<path d="M519.371 450.003H531.565V451.566H516.244V427.183H519.371V450.003Z" fill="#231F20"/>
<path d="M89.1219 330.273C52.5382 330.273 25.3349 300.262 25.3349 250.869C25.3349 207.103 48.4734 173.653 82.5556 173.653C92.5614 173.653 101.629 176.466 110.072 181.468C131.021 196.474 128.52 219.92 128.52 219.92H131.647C132.272 209.916 146.343 197.412 146.343 197.412L145.092 196.161C131.647 180.53 108.508 169.589 83.181 169.589C36.5915 169.276 -0.617594 204.914 0.00776856 256.496C0.00776856 306.514 33.4647 340.277 79.1161 340.277C109.134 340.277 132.585 325.896 147.906 300.887L145.092 299.324C131.334 320.582 110.697 330.273 89.1219 330.273Z" fill="black"/>
<path d="M283.922 236.177L203.251 269.001V253.683V249.619V172.716H180.112V337.464H203.251V273.378L283.922 240.553V249.619V253.683V337.464H306.748V172.716H283.922V236.177Z" fill="black"/>
<path d="M406.495 168.964L367.097 265.249L365.221 269.626C354.903 294.635 345.21 318.394 335.829 337.463H351.463C352.089 323.083 355.528 308.39 364.908 283.381H429.321L450.896 337.463H475.91L407.433 168.964H406.495ZM366.472 279.317L371.475 266.812L397.115 203.664L427.757 279.317H366.472Z" fill="black"/>
<path d="M613.177 214.294C613.177 186.471 590.039 172.716 546.263 172.716H505.615V337.464H528.753V263.061H543.762C550.015 263.061 552.204 264.312 555.644 267.751L622.558 342.466H623.808V313.705L573.154 257.434C597.856 248.994 613.177 235.864 613.177 214.294ZM550.015 259.31C543.762 259.31 534.069 258.997 529.066 258.06V176.155H545.638C574.717 176.155 590.039 191.16 590.039 215.857C590.039 239.615 573.779 259.31 550.015 259.31Z" fill="black"/>
<path d="M682.279 172.716H659.14V337.464H682.279V172.716Z" fill="black"/>
<path d="M801.098 232.425C817.67 208.979 833.304 188.972 848 172.716H830.177C826.425 186.158 815.794 203.665 797.658 229.924L791.405 238.678L739.187 172.716H709.795L775.771 255.559L760.449 277.442C741.063 304.327 724.804 324.647 712.609 337.464H736.686C740.125 320.27 749.505 300.888 764.201 279.943L779.21 258.997L845.811 342.153H847.062V308.703L794.219 242.429L801.098 232.425Z" fill="black"/>
<path d="M171.671 451.568L169.482 428.747L161.039 450.005L151.659 429.685L150.721 440.626C150.408 443.127 150.408 445.315 150.408 447.191C150.408 448.754 150.408 450.317 150.721 451.568H148.532C149.158 449.067 149.47 445.315 150.096 440.626L151.034 428.434L150.408 426.871H154.16L162.29 445.003L169.482 426.871H172.609L174.797 451.568H171.671Z" fill="black"/>
<path d="M207.629 451.568L205.44 428.747L196.998 450.005L187.618 429.685L186.679 440.626C186.367 443.127 186.367 445.315 186.367 447.191C186.367 448.754 186.367 450.317 186.679 451.568H184.491C185.116 449.067 185.429 445.315 186.054 440.626L187.305 428.434L186.679 426.871H190.432L198.561 445.003L205.753 426.871H208.88L211.069 451.568H207.629Z" fill="black"/>
<path d="M658.827 437.189L666.644 447.192V452.194H666.332L656.326 439.689L654.137 442.816C651.948 445.942 650.385 448.755 650.072 451.569H646.32C648.196 449.693 650.698 446.567 653.512 442.503L655.701 439.064L645.695 426.56H650.072L657.889 436.563L658.827 435.313C661.642 431.249 663.205 428.748 663.83 426.56H666.644C664.456 429.06 661.954 431.874 659.453 435.625L658.827 437.189Z" fill="black"/>
<path d="M695.724 426.871C694.473 429.685 692.91 433.436 691.346 437.187L691.033 437.813L685.092 452.193L674.774 426.871H678.526L686.656 446.878L690.408 437.5C691.346 434.686 692.284 432.811 692.597 431.248C692.909 429.685 693.222 428.122 693.222 426.871H695.724Z" fill="black"/>
</svg>
