<svg width="118" height="118" fill="none" xmlns="http://www.w3.org/2000/svg"><circle cx="59" cy="59" r="59" fill="#000"/><path d="M50.829 47.776c0-3.753-3.267-4.698-6.264-5.427v-5.454c1.43.162 2.943.62 4.374 1.458l1.107-2.727c-1.458-.945-3.483-1.54-5.481-1.647v-2.997H42.35v3.05c-4.212.406-6.21 2.809-6.21 5.563 0 3.753 3.213 4.725 6.21 5.454v5.4c-2.052-.19-4.077-.972-5.4-2.052l-1.215 2.727c1.404 1.215 3.969 2.079 6.615 2.24v2.998h2.214v-3.024c4.239-.432 6.264-2.808 6.264-5.562zm-11.205-8.343c0-1.188.81-2.16 2.727-2.457v4.806c-1.566-.46-2.727-1.053-2.727-2.35zm4.94 10.962v-4.78c1.62.46 2.809 1.08 2.809 2.404 0 1.16-.837 2.079-2.808 2.376zm8.51-16.173v2.943h3.996v15.957h3.51v-18.9h-7.506zm20.489 19.17c4.509 0 7.91-3.51 7.91-9.72 0-6.21-3.401-9.72-7.91-9.72-4.482 0-7.884 3.51-7.884 9.72 0 6.21 3.402 9.72 7.884 9.72zm0-3.051c-2.565 0-4.347-2.106-4.347-6.67 0-4.562 1.782-6.668 4.347-6.668 2.592 0 4.374 2.106 4.374 6.669s-1.782 6.669-4.374 6.669zM40.186 85.39c5.859 0 10.179-4.103 10.179-9.72 0-5.615-4.32-9.72-10.18-9.72-5.858 0-10.178 4.132-10.178 9.72 0 5.59 4.32 9.72 10.179 9.72zm0-3.077c-3.807 0-6.642-2.781-6.642-6.642s2.835-6.642 6.642-6.642c3.807 0 6.642 2.78 6.642 6.642 0 3.86-2.835 6.642-6.642 6.642zm29.046-13.15v-2.942H55.435v18.9h3.51v-7.236h9.126v-2.97h-9.126v-5.751h10.287zm18.541 0v-2.942H73.977v18.9h3.51v-7.236h9.126v-2.97h-9.126v-5.751h10.287z" fill="#fff"/></svg>