<svg width="32" height="33" fill="none" xmlns="http://www.w3.org/2000/svg"><path d="M5.07 17.599c0 4.004-1.186 6.643-3.63 8.069-.512.302-.692.96-.405 1.485l2.226 4.03a1.09 1.09 0 001.362.488c1.803-.731 7.911-2.81 10.944 1.116a.546.546 0 00.863 0c3.034-3.925 9.144-1.847 10.945-1.116a1.09 1.09 0 001.362-.488l2.225-4.031a1.107 1.107 0 00-.405-1.485c-2.443-1.425-3.63-4.064-3.63-8.068 0-4.367 2.951-7.7 3.857-8.619a1.099 1.099 0 00.062-1.476L28.633 4.83a1.088 1.088 0 00-.983-.385c-5.185.685-6.765-2.356-7.204-3.697a1.086 1.086 0 00-1.035-.75h-6.824c-.47-.001-.887.3-1.035.749-.438 1.34-2.022 4.383-7.202 3.7a1.09 1.09 0 00-.983.384L1.154 7.506a1.099 1.099 0 00.061 1.476C2.12 9.9 5.07 13.232 5.07 17.6zM4.208 5.538c6.163.813 7.973-3.197 8.38-4.438l6.82-.007c.409 1.248 2.22 5.256 8.386 4.442l2.215 2.671c-.98.993-4.174 4.608-4.174 9.393 0 4.43 1.366 7.381 4.172 9.02l-2.223 4.032c-1.901-.77-8.186-2.896-11.785.954-1.591-1.704-3.707-2.237-5.738-2.237a17.055 17.055 0 00-6.045 1.28l-2.227-4.03c2.808-1.638 4.175-4.589 4.175-9.02 0-4.784-3.195-8.4-4.172-9.391l2.216-2.67z" fill="#881616"/><path d="M16 7.603a2.314 2.314 0 01-2.304-2.319A2.315 2.315 0 0116 2.964c1.27 0 2.304 1.04 2.304 2.32A2.314 2.314 0 0116 7.602zm0-3.736c-.776 0-1.408.635-1.408 1.416 0 .782.632 1.417 1.408 1.417.776 0 1.407-.635 1.407-1.417 0-.78-.63-1.416-1.407-1.416z" fill="#881616"/></svg>