<svg width="76" height="76" fill="none" xmlns="http://www.w3.org/2000/svg"><circle cx="38" cy="38" r="38" fill="#fff"/><g clip-path="url(#clip0)" fill="#000"><path d="M19.953 39.332c0 6.673-1.977 11.072-6.049 13.448a1.844 1.844 0 00-.676 2.475l3.71 6.717a1.816 1.816 0 002.27.813c3.005-1.218 13.185-4.682 18.24 1.86a.91.91 0 001.438 0c5.057-6.541 15.24-3.078 18.242-1.86a1.817 1.817 0 002.27-.813l3.708-6.72c.48-.872.18-1.97-.675-2.474-4.07-2.374-6.05-6.773-6.05-13.446 0-7.278 4.919-12.833 6.429-14.365.662-.67.707-1.738.102-2.46l-3.687-4.455a1.813 1.813 0 00-1.64-.642c-8.64 1.141-11.274-3.927-12.005-6.162A1.81 1.81 0 0043.854 10H32.482c-.783-.003-1.48.5-1.726 1.247-.73 2.233-3.37 7.304-12.003 6.166a1.815 1.815 0 00-1.639.64l-3.688 4.456a1.831 1.831 0 00.102 2.461c1.507 1.529 6.425 7.083 6.425 14.362zM18.517 19.23c10.27 1.356 13.287-5.329 13.965-7.397l11.369-.011c.68 2.08 3.7 8.76 13.975 7.403l3.691 4.452c-1.632 1.655-6.956 7.68-6.956 15.655 0 7.383 2.276 12.302 6.954 15.033l-3.705 6.72c-3.17-1.283-13.644-4.827-19.642 1.59-2.652-2.84-6.178-3.728-9.563-3.728a28.425 28.425 0 00-10.076 2.132l-3.71-6.715c4.68-2.731 6.957-7.648 6.957-15.033 0-7.975-5.325-14-6.953-15.653l3.694-4.448z"/><path d="M38.169 22.672c-2.117 0-3.84-1.734-3.84-3.865 0-2.131 1.722-3.866 3.84-3.866 2.117 0 3.84 1.734 3.84 3.865 0 2.13-1.722 3.866-3.84 3.866zm0-6.227a2.356 2.356 0 00-2.346 2.36 2.356 2.356 0 002.346 2.362 2.356 2.356 0 002.346-2.361 2.356 2.356 0 00-2.346-2.361z"/></g><defs><clipPath id="clip0"><path fill="#fff" transform="translate(13 10)" d="M0 0h50.339v55H0z"/></clipPath></defs></svg>