<svg width="118" height="118" viewBox="0 0 118 118" fill="none" xmlns="http://www.w3.org/2000/svg">
<path d="M59 118C91.5848 118 118 91.5848 118 59C118 26.4152 91.5848 0 59 0C26.4152 0 0 26.4152 0 59C0 91.5848 26.4152 118 59 118Z" fill="black"/>
<path d="M45.0909 49.03V52H31.1589V49.651L38.6649 42.523C39.5109 41.713 40.0779 41.011 40.3659 40.417C40.6719 39.805 40.8249 39.202 40.8249 38.608C40.8249 37.726 40.5279 37.051 39.9339 36.583C39.3399 36.115 38.4669 35.881 37.3149 35.881C35.3889 35.881 33.9129 36.538 32.8869 37.852L30.4299 35.962C31.1679 34.972 32.1579 34.207 33.3999 33.667C34.6599 33.109 36.0639 32.83 37.6119 32.83C39.6639 32.83 41.3019 33.316 42.5259 34.288C43.7499 35.26 44.3619 36.583 44.3619 38.257C44.3619 39.283 44.1459 40.246 43.7139 41.146C43.2819 42.046 42.4539 43.072 41.2299 44.224L36.1809 49.03H45.0909ZM55.1916 52.27C53.6796 52.27 52.3296 51.892 51.1416 51.136C49.9536 50.362 49.0176 49.246 48.3336 47.788C47.6496 46.312 47.3076 44.566 47.3076 42.55C47.3076 40.534 47.6496 38.797 48.3336 37.339C49.0176 35.863 49.9536 34.747 51.1416 33.991C52.3296 33.217 53.6796 32.83 55.1916 32.83C56.7036 32.83 58.0536 33.217 59.2416 33.991C60.4476 34.747 61.3926 35.863 62.0766 37.339C62.7606 38.797 63.1026 40.534 63.1026 42.55C63.1026 44.566 62.7606 46.312 62.0766 47.788C61.3926 49.246 60.4476 50.362 59.2416 51.136C58.0536 51.892 56.7036 52.27 55.1916 52.27ZM55.1916 49.219C56.5416 49.219 57.6036 48.661 58.3776 47.545C59.1696 46.429 59.5656 44.764 59.5656 42.55C59.5656 40.336 59.1696 38.671 58.3776 37.555C57.6036 36.439 56.5416 35.881 55.1916 35.881C53.8596 35.881 52.7976 36.439 52.0056 37.555C51.2316 38.671 50.8446 40.336 50.8446 42.55C50.8446 44.764 51.2316 46.429 52.0056 47.545C52.7976 48.661 53.8596 49.219 55.1916 49.219ZM69.9566 43.279C68.6066 43.279 67.5176 42.802 66.6896 41.848C65.8616 40.894 65.4476 39.643 65.4476 38.095C65.4476 36.547 65.8616 35.296 66.6896 34.342C67.5176 33.388 68.6066 32.911 69.9566 32.911C71.3066 32.911 72.3956 33.388 73.2236 34.342C74.0696 35.278 74.4926 36.529 74.4926 38.095C74.4926 39.661 74.0696 40.921 73.2236 41.875C72.3956 42.811 71.3066 43.279 69.9566 43.279ZM81.2966 33.1H83.9426L71.0366 52H68.3906L81.2966 33.1ZM69.9566 41.389C70.6946 41.389 71.2616 41.101 71.6576 40.525C72.0716 39.949 72.2786 39.139 72.2786 38.095C72.2786 37.051 72.0716 36.241 71.6576 35.665C71.2616 35.089 70.6946 34.801 69.9566 34.801C69.2546 34.801 68.6876 35.098 68.2556 35.692C67.8416 36.268 67.6346 37.069 67.6346 38.095C67.6346 39.121 67.8416 39.931 68.2556 40.525C68.6876 41.101 69.2546 41.389 69.9566 41.389ZM82.3496 52.189C80.9996 52.189 79.9106 51.712 79.0826 50.758C78.2546 49.804 77.8406 48.553 77.8406 47.005C77.8406 45.457 78.2546 44.206 79.0826 43.252C79.9106 42.298 80.9996 41.821 82.3496 41.821C83.6996 41.821 84.7886 42.298 85.6166 43.252C86.4626 44.206 86.8856 45.457 86.8856 47.005C86.8856 48.553 86.4626 49.804 85.6166 50.758C84.7886 51.712 83.6996 52.189 82.3496 52.189ZM82.3496 50.299C83.0696 50.299 83.6366 50.011 84.0506 49.435C84.4646 48.841 84.6716 48.031 84.6716 47.005C84.6716 45.979 84.4646 45.178 84.0506 44.602C83.6366 44.008 83.0696 43.711 82.3496 43.711C81.6296 43.711 81.0626 43.999 80.6486 44.575C80.2346 45.151 80.0276 45.961 80.0276 47.005C80.0276 48.049 80.2346 48.859 80.6486 49.435C81.0626 50.011 81.6296 50.299 82.3496 50.299ZM41.5413 85.27C39.6153 85.27 37.8783 84.856 36.3303 84.028C34.7823 83.182 33.5673 82.021 32.6853 80.545C31.8033 79.051 31.3623 77.386 31.3623 75.55C31.3623 73.714 31.8033 72.058 32.6853 70.582C33.5673 69.088 34.7823 67.927 36.3303 67.099C37.8783 66.253 39.6153 65.83 41.5413 65.83C43.4673 65.83 45.2043 66.253 46.7523 67.099C48.3003 67.927 49.5153 69.079 50.3973 70.555C51.2793 72.031 51.7203 73.696 51.7203 75.55C51.7203 77.404 51.2793 79.069 50.3973 80.545C49.5153 82.021 48.3003 83.182 46.7523 84.028C45.2043 84.856 43.4673 85.27 41.5413 85.27ZM41.5413 82.192C42.8013 82.192 43.9353 81.913 44.9433 81.355C45.9513 80.779 46.7433 79.987 47.3193 78.979C47.8953 77.953 48.1833 76.81 48.1833 75.55C48.1833 74.29 47.8953 73.156 47.3193 72.148C46.7433 71.122 45.9513 70.33 44.9433 69.772C43.9353 69.196 42.8013 68.908 41.5413 68.908C40.2813 68.908 39.1473 69.196 38.1393 69.772C37.1313 70.33 36.3393 71.122 35.7633 72.148C35.1873 73.156 34.8993 74.29 34.8993 75.55C34.8993 76.81 35.1873 77.953 35.7633 78.979C36.3393 79.987 37.1313 80.779 38.1393 81.355C39.1473 81.913 40.2813 82.192 41.5413 82.192ZM59.2209 69.043V74.794H68.3469V77.764H59.2209V85H55.7109V66.1H69.5079V69.043H59.2209ZM76.6823 69.043V74.794H85.8083V77.764H76.6823V85H73.1723V66.1H86.9693V69.043H76.6823Z" fill="white"/>
</svg>
