<svg fill="#F1B258" xmlns="http://www.w3.org/2000/svg" viewBox="0 0 512 512"><path d="M511.933 124.319a11.24 11.24 0 00-4.327-7.651l-5.963-4.554-5.411-13.139c-1.88-4.565-6.619-7.39-11.531-6.862l-11.243 1.202c-4.948.529-8.991 4.324-9.833 9.228l-4.349 25.327-26.135 10.105a11.152 11.152 0 00-6.553 6.814l-5.862 17.146-12.279 8.949-39.955-35.16a7.619 7.619 0 00-4.137-1.848l-62.103-7.421a11.672 11.672 0 00-.993-.276l-12.402-2.831-11.326-6.893a11.193 11.193 0 00-5.814-1.629h-.043l-90.329.358-28.438.113a7.634 7.634 0 00-7.602 7.663c.016 4.215 3.471 7.573 7.663 7.602l20.745-.082v105.383H19.405l-4.101-44.504 11.241-51.816 3.939.039c3.098.045 6.126-1.253 8.26-3.523a11.22 11.22 0 002.723-5.046l76.274-.151a7.632 7.632 0 007.617-7.648 7.63 7.63 0 00-7.632-7.617h-.015l-80.145.158a11.222 11.222 0 00-8.158 3.583 11.218 11.218 0 00-2.656 4.942l-3.379-.034h-.112c-5.232 0-9.817 3.69-10.929 8.813L.255 188.733a11.232 11.232 0 00-.209 3.4l4.523 49.091a7.611 7.611 0 00-.344 2.272c0 1.284.321 2.492.881 3.555l1.886 20.471a11.15 11.15 0 002.322 5.861l43.935 56.266a11.118 11.118 0 003.318 2.83 7.58 7.58 0 002.912 1.222l55.611 19.072c1.17.401 2.39.604 3.63.604h.014l42.463-.07 31.305 31.184a11.132 11.132 0 0013.845 1.543l6.596-4.148 35.046 34.815a11.182 11.182 0 008.687 3.219l7.056-.51a11.112 11.112 0 007.653-3.836 11.108 11.108 0 002.698-8.124l-1.048-14.519 25.29-21.292 51.78-12.335 48.35-1.429 8.01 15.792a11.104 11.104 0 002.567 3.324c1.911 1.688 8.931 7.885 15.539 13.654 15.102 13.185 15.103 13.188 18.607 12.932 1.396-.101 1.687-.121 11.048-4.026 5.2-2.168 7.982-7.896 6.47-13.324l-8.373-30.062a11.216 11.216 0 00-.942-2.33l-16.945-31.254a.773.773 0 01-.015-.029l-.601-1.11 37.214-57.422a11.182 11.182 0 001.369-9.143l-4.309-15.129 3.785-42.351 16.401-10.503a11.226 11.226 0 005.142-9.856l-.945-24.098 16.916-20.208a11.23 11.23 0 002.54-8.413zm-322.956 6.1l81.604-.324 10.904 6.637a11.13 11.13 0 003.327 1.35l12.65 2.888a7.6 7.6 0 002.014.526l60.712 7.254 5.031 4.428H188.977v-22.759zm0 79.353h266.472l-2.331 26.091H188.977v-26.091zm72.636 172.824a11.212 11.212 0 00-3.951 9.361l.905 12.524-1.135.082-29.588-29.393h42.591l-8.822 7.426zm176.131-21.891l7.28 26.138c-.372.154-.715.294-1.031.422-4.465-3.799-13.434-11.628-24.265-21.192l-8.832-17.413a11.215 11.215 0 00-10.304-6.118l-51.349 1.517c-.763.021-1.526.123-2.267.299l-53.127 12.655a11.25 11.25 0 00-4.615 2.324l-.671.565h-99.114L170.776 341.3a11.113 11.113 0 00-7.896-3.264h-.018l-43.467.072-12.455-4.271h316.237l14.567 26.868zm-18.948-44.141l-.001.001-.248.384a7.62 7.62 0 00-.784 1.625H63.971l-20.373-26.09h390.804l-15.606 24.08zm25.498-39.345H31.679l-9.595-12.288-1.272-13.803h434.653l1.751 6.151-12.922 19.94zm35.468-132.866a11.163 11.163 0 00-2.598 7.616l.915 23.334-16.118 10.322a11.26 11.26 0 00-5.107 8.422l-.042.462H188.977v-26.065h193.589l20.39 17.944a7.633 7.633 0 009.537.439l18.519-13.498c.196-.143.386-.296.568-.457a11.21 11.21 0 003.164-4.751l5.671-16.59 26.524-10.255a11.235 11.235 0 006.988-8.538l4.219-24.57 5.134-.549 4.666 11.33a11.187 11.187 0 003.554 4.629l3.449 2.634-15.187 18.141z"/><path d="M48.475 157.176h-1.018v-1.018a7.632 7.632 0 00-15.264 0v1.018h-1.018a7.632 7.632 0 000 15.264h1.018v1.018a7.632 7.632 0 0015.264 0v-1.018h1.018a7.632 7.632 0 000-15.264zm37.704 0h-1.018v-1.018a7.632 7.632 0 00-15.264 0v1.018h-1.018a7.632 7.632 0 000 15.264h1.018v1.018a7.632 7.632 0 0015.264 0v-1.018h1.018a7.632 7.632 0 000-15.264zm37.703 0h-1.018v-1.018a7.632 7.632 0 00-15.264 0v1.018h-1.018a7.632 7.632 0 000 15.264h1.018v1.018a7.632 7.632 0 0015.264 0v-1.018h1.018a7.632 7.632 0 000-15.264zm37.703 0h-1.018v-1.018a7.632 7.632 0 00-15.264 0v1.018h-1.018a7.632 7.632 0 000 15.264h1.018v1.018a7.632 7.632 0 0015.264 0v-1.018h1.018a7.632 7.632 0 000-15.264zM48.475 198.39h-1.018v-1.018a7.632 7.632 0 00-15.264 0v1.018h-1.018a7.632 7.632 0 000 15.264h1.018v1.018a7.632 7.632 0 0015.264 0v-1.018h1.018a7.632 7.632 0 000-15.264zm37.704 0h-1.018v-1.018a7.632 7.632 0 00-15.264 0v1.018h-1.018a7.632 7.632 0 000 15.264h1.018v1.018a7.632 7.632 0 0015.264 0v-1.018h1.018a7.632 7.632 0 000-15.264zm37.703 0h-1.018v-1.018a7.632 7.632 0 00-15.264 0v1.018h-1.018a7.632 7.632 0 000 15.264h1.018v1.018a7.632 7.632 0 0015.264 0v-1.018h1.018a7.632 7.632 0 000-15.264zm37.703 0h-1.018v-1.018a7.632 7.632 0 00-15.264 0v1.018h-1.018a7.632 7.632 0 000 15.264h1.018v1.018a7.632 7.632 0 0015.264 0v-1.018h1.018a7.632 7.632 0 000-15.264z"/></svg>