<svg width="118" height="118" viewBox="0 0 118 118" fill="none" xmlns="http://www.w3.org/2000/svg">
<path d="M59 118C91.5848 118 118 91.5848 118 59C118 26.4152 91.5848 0 59 0C26.4152 0 0 26.4152 0 59C0 91.5848 26.4152 118 59 118Z" fill="black"/>
<path d="M53.3842 46.654C53.3842 48.112 52.8442 49.354 51.7642 50.38C50.7022 51.388 49.1542 52 47.1202 52.216V55.24H44.9062V52.243C43.5742 52.153 42.3142 51.91 41.1262 51.514C39.9382 51.118 38.9932 50.614 38.2912 50.002L39.5062 47.275C40.1722 47.815 40.9822 48.274 41.9362 48.652C42.8902 49.012 43.8802 49.237 44.9062 49.327V43.927C43.6282 43.621 42.5572 43.288 41.6932 42.928C40.8472 42.55 40.1362 42.01 39.5602 41.308C38.9842 40.588 38.6962 39.643 38.6962 38.473C38.6962 37.015 39.2272 35.773 40.2892 34.747C41.3512 33.721 42.8902 33.109 44.9062 32.911V29.86H47.1202V32.857C48.1282 32.911 49.1092 33.082 50.0632 33.37C51.0352 33.658 51.8812 34.036 52.6012 34.504L51.4942 37.231C50.1262 36.439 48.6682 35.953 47.1202 35.773V41.227C48.4162 41.533 49.4872 41.866 50.3332 42.226C51.1972 42.586 51.9172 43.126 52.4932 43.846C53.0872 44.548 53.3842 45.484 53.3842 46.654ZM42.1792 38.311C42.1792 38.905 42.4132 39.382 42.8812 39.742C43.3492 40.102 44.0242 40.408 44.9062 40.66V35.854C43.9882 35.998 43.3042 36.286 42.8542 36.718C42.4042 37.15 42.1792 37.681 42.1792 38.311ZM47.1202 49.273C48.0742 49.129 48.7762 48.85 49.2262 48.436C49.6942 48.022 49.9282 47.509 49.9282 46.897C49.9282 46.285 49.6852 45.799 49.1992 45.439C48.7132 45.061 48.0202 44.746 47.1202 44.494V49.273ZM62.055 33.1V52H58.545V36.043H54.549V33.1H62.055ZM71.9872 40.417C74.6512 40.417 76.6222 40.939 77.9002 41.983C79.1782 43.009 79.8172 44.413 79.8172 46.195C79.8172 47.329 79.5382 48.355 78.9802 49.273C78.4222 50.191 77.5852 50.92 76.4692 51.46C75.3532 52 73.9762 52.27 72.3382 52.27C70.9882 52.27 69.6832 52.081 68.4232 51.703C67.1632 51.307 66.1012 50.767 65.2372 50.083L66.7222 47.356C67.4242 47.932 68.2612 48.391 69.2332 48.733C70.2232 49.057 71.2402 49.219 72.2842 49.219C73.5262 49.219 74.4982 48.967 75.2002 48.463C75.9202 47.941 76.2802 47.23 76.2802 46.33C76.2802 45.358 75.8932 44.629 75.1192 44.143C74.3632 43.639 73.0582 43.387 71.2042 43.387H66.6412L67.6132 33.1H78.7102V36.043H70.5832L70.1782 40.417H71.9872ZM41.5413 85.27C39.6153 85.27 37.8783 84.856 36.3303 84.028C34.7823 83.182 33.5673 82.021 32.6853 80.545C31.8033 79.051 31.3623 77.386 31.3623 75.55C31.3623 73.714 31.8033 72.058 32.6853 70.582C33.5673 69.088 34.7823 67.927 36.3303 67.099C37.8783 66.253 39.6153 65.83 41.5413 65.83C43.4673 65.83 45.2043 66.253 46.7523 67.099C48.3003 67.927 49.5153 69.079 50.3973 70.555C51.2793 72.031 51.7203 73.696 51.7203 75.55C51.7203 77.404 51.2793 79.069 50.3973 80.545C49.5153 82.021 48.3003 83.182 46.7523 84.028C45.2043 84.856 43.4673 85.27 41.5413 85.27ZM41.5413 82.192C42.8013 82.192 43.9353 81.913 44.9433 81.355C45.9513 80.779 46.7433 79.987 47.3193 78.979C47.8953 77.953 48.1833 76.81 48.1833 75.55C48.1833 74.29 47.8953 73.156 47.3193 72.148C46.7433 71.122 45.9513 70.33 44.9433 69.772C43.9353 69.196 42.8013 68.908 41.5413 68.908C40.2813 68.908 39.1473 69.196 38.1393 69.772C37.1313 70.33 36.3393 71.122 35.7633 72.148C35.1873 73.156 34.8993 74.29 34.8993 75.55C34.8993 76.81 35.1873 77.953 35.7633 78.979C36.3393 79.987 37.1313 80.779 38.1393 81.355C39.1473 81.913 40.2813 82.192 41.5413 82.192ZM59.2209 69.043V74.794H68.3469V77.764H59.2209V85H55.7109V66.1H69.5079V69.043H59.2209ZM76.6823 69.043V74.794H85.8083V77.764H76.6823V85H73.1723V66.1H86.9693V69.043H76.6823Z" fill="white"/>
</svg>
