<svg width="76" height="76" fill="none" xmlns="http://www.w3.org/2000/svg"><circle cx="38" cy="38" r="38" fill="#fff"/><path d="M37.829 64.144a.973.973 0 01-.97-.973v-7.337l-.041-.056a.967.967 0 01-.15-.31c-.547-1.991-1.667-4.029-3.239-5.894l-.17-.202-.218.279c-.046.059-.09.12-.14.177-1.618 1.932-3.967 3.04-6.446 3.04-.33 0-.665-.02-.994-.06-4.145-.498-6.176-2.967-7.967-5.146-1.6-1.945-2.98-3.624-5.655-3.992a.965.965 0 01-.753-.565.97.97 0 01.078-.94c.107-.16 2.679-3.95 8.442-5.916a15.39 15.39 0 014.916-.814c2.102 0 4.063.437 5.67 1.263 2.17 1.116 3.68 2.907 4.367 5.18a8.5 8.5 0 01-.245 5.58l-.05.126.092.1a20.6 20.6 0 012.107 2.727l.394.613V40.651c0-.417.009-.831.027-1.267l.005-.127-.109-.066c-1.866-1.119-3.318-2.7-4.198-4.577-1.45-3.09-1.119-7.11.889-10.754 2.13-3.867 5.91-6.793 10.369-8.026 1.999-.553 4.147-.834 6.384-.834 3.52 0 7.262.713 10.82 2.061.03.01.532.181.652.682a.977.977 0 01-.42 1.023c-2.228 1.597-3.908 3.437-4.997 5.474a.969.969 0 01-1.785-.18.964.964 0 01.074-.74c.922-1.724 2.216-3.327 3.847-4.762l.29-.256-.37-.112c-2.73-.827-5.458-1.246-8.107-1.246-2.061 0-4.037.258-5.87.764-3.959 1.095-7.308 3.68-9.187 7.09-1.707 3.101-2.02 6.46-.832 8.987.538 1.144 1.383 2.193 2.444 3.031l.292.231.052-.368c1.194-8.326 5.946-10.763 6.147-10.863a.964.964 0 011.3.443.976.976 0 01-.435 1.299c-.182.094-4.412 2.377-5.21 10.37l-.016.16.148.06a9.257 9.257 0 003.485.704c.25 0 .502-.011.749-.033 3.653-.325 6.765-2.99 8.325-7.126.148-.391.293-.817.445-1.305a.967.967 0 011.217-.636c.248.077.45.248.57.478.12.23.144.493.066.741-.163.52-.32.982-.483 1.41-1.83 4.853-5.556 7.984-9.969 8.376a10.63 10.63 0 01-.945.042 11.05 11.05 0 01-3.44-.554l-.28-.091-.003.5v22.52a.97.97 0 01-.969.97zM25.692 50.877c.263.031.529.047.789.047 1.914 0 3.666-.834 4.932-2.346.118-.14.234-.294.365-.483l.108-.153-.138-.127c-2.405-2.225-5.143-3.68-7.71-4.097a.964.964 0 01-.633-.392.964.964 0 01-.17-.725.967.967 0 011.114-.804c2.7.44 5.585 1.88 8.122 4.058l.272.232.078-.349a6.51 6.51 0 00-.118-3.297c-.539-1.78-1.681-3.13-3.395-4.012-1.345-.692-2.993-1.056-4.77-1.056a13.48 13.48 0 00-4.304.717c-3.049 1.04-5.093 2.64-6.269 3.798l-.236.231.308.122c2.24.88 3.684 2.635 4.957 4.183 1.71 2.082 3.327 4.048 6.698 4.453z" fill="#000"/></svg>