<svg width="118" height="118" viewBox="0 0 118 118" fill="none" xmlns="http://www.w3.org/2000/svg">
<path d="M59 118C91.5848 118 118 91.5848 118 59C118 26.4152 91.5848 0 59 0C26.4152 0 0 26.4152 0 59C0 91.5848 26.4152 118 59 118Z" fill="black"/>
<path d="M49.4028 46.654C49.4028 48.112 48.8628 49.354 47.7828 50.38C46.7208 51.388 45.1728 52 43.1388 52.216V55.24H40.9248V52.243C39.5928 52.153 38.3328 51.91 37.1448 51.514C35.9568 51.118 35.0118 50.614 34.3098 50.002L35.5248 47.275C36.1908 47.815 37.0008 48.274 37.9548 48.652C38.9088 49.012 39.8988 49.237 40.9248 49.327V43.927C39.6468 43.621 38.5758 43.288 37.7118 42.928C36.8658 42.55 36.1548 42.01 35.5788 41.308C35.0028 40.588 34.7148 39.643 34.7148 38.473C34.7148 37.015 35.2458 35.773 36.3078 34.747C37.3698 33.721 38.9088 33.109 40.9248 32.911V29.86H43.1388V32.857C44.1468 32.911 45.1278 33.082 46.0818 33.37C47.0538 33.658 47.8998 34.036 48.6198 34.504L47.5128 37.231C46.1448 36.439 44.6868 35.953 43.1388 35.773V41.227C44.4348 41.533 45.5058 41.866 46.3518 42.226C47.2158 42.586 47.9358 43.126 48.5118 43.846C49.1058 44.548 49.4028 45.484 49.4028 46.654ZM38.1978 38.311C38.1978 38.905 38.4318 39.382 38.8998 39.742C39.3678 40.102 40.0428 40.408 40.9248 40.66V35.854C40.0068 35.998 39.3228 36.286 38.8728 36.718C38.4228 37.15 38.1978 37.681 38.1978 38.311ZM43.1388 49.273C44.0928 49.129 44.7948 48.85 45.2448 48.436C45.7128 48.022 45.9468 47.509 45.9468 46.897C45.9468 46.285 45.7038 45.799 45.2178 45.439C44.7318 45.061 44.0388 44.746 43.1388 44.494V49.273ZM59.7174 40.903C61.4634 41.119 62.7954 41.713 63.7134 42.685C64.6314 43.657 65.0904 44.872 65.0904 46.33C65.0904 47.428 64.8114 48.427 64.2534 49.327C63.6954 50.227 62.8494 50.947 61.7154 51.487C60.5994 52.009 59.2314 52.27 57.6114 52.27C56.2614 52.27 54.9564 52.081 53.6964 51.703C52.4544 51.307 51.3924 50.767 50.5104 50.083L52.0224 47.356C52.7064 47.932 53.5344 48.391 54.5064 48.733C55.4964 49.057 56.5134 49.219 57.5574 49.219C58.7994 49.219 59.7714 48.967 60.4734 48.463C61.1934 47.941 61.5534 47.239 61.5534 46.357C61.5534 45.475 61.2114 44.791 60.5274 44.305C59.8614 43.801 58.8354 43.549 57.4494 43.549H55.7214V41.146L60.0144 36.043H51.4284V33.1H64.3074V35.449L59.7174 40.903ZM75.5402 52.27C74.0282 52.27 72.6782 51.892 71.4902 51.136C70.3022 50.362 69.3662 49.246 68.6822 47.788C67.9982 46.312 67.6562 44.566 67.6562 42.55C67.6562 40.534 67.9982 38.797 68.6822 37.339C69.3662 35.863 70.3022 34.747 71.4902 33.991C72.6782 33.217 74.0282 32.83 75.5402 32.83C77.0522 32.83 78.4022 33.217 79.5902 33.991C80.7962 34.747 81.7412 35.863 82.4252 37.339C83.1092 38.797 83.4512 40.534 83.4512 42.55C83.4512 44.566 83.1092 46.312 82.4252 47.788C81.7412 49.246 80.7962 50.362 79.5902 51.136C78.4022 51.892 77.0522 52.27 75.5402 52.27ZM75.5402 49.219C76.8902 49.219 77.9522 48.661 78.7262 47.545C79.5182 46.429 79.9142 44.764 79.9142 42.55C79.9142 40.336 79.5182 38.671 78.7262 37.555C77.9522 36.439 76.8902 35.881 75.5402 35.881C74.2082 35.881 73.1462 36.439 72.3542 37.555C71.5802 38.671 71.1932 40.336 71.1932 42.55C71.1932 44.764 71.5802 46.429 72.3542 47.545C73.1462 48.661 74.2082 49.219 75.5402 49.219ZM41.5413 85.27C39.6153 85.27 37.8783 84.856 36.3303 84.028C34.7823 83.182 33.5673 82.021 32.6853 80.545C31.8033 79.051 31.3623 77.386 31.3623 75.55C31.3623 73.714 31.8033 72.058 32.6853 70.582C33.5673 69.088 34.7823 67.927 36.3303 67.099C37.8783 66.253 39.6153 65.83 41.5413 65.83C43.4673 65.83 45.2043 66.253 46.7523 67.099C48.3003 67.927 49.5153 69.079 50.3973 70.555C51.2793 72.031 51.7203 73.696 51.7203 75.55C51.7203 77.404 51.2793 79.069 50.3973 80.545C49.5153 82.021 48.3003 83.182 46.7523 84.028C45.2043 84.856 43.4673 85.27 41.5413 85.27ZM41.5413 82.192C42.8013 82.192 43.9353 81.913 44.9433 81.355C45.9513 80.779 46.7433 79.987 47.3193 78.979C47.8953 77.953 48.1833 76.81 48.1833 75.55C48.1833 74.29 47.8953 73.156 47.3193 72.148C46.7433 71.122 45.9513 70.33 44.9433 69.772C43.9353 69.196 42.8013 68.908 41.5413 68.908C40.2813 68.908 39.1473 69.196 38.1393 69.772C37.1313 70.33 36.3393 71.122 35.7633 72.148C35.1873 73.156 34.8993 74.29 34.8993 75.55C34.8993 76.81 35.1873 77.953 35.7633 78.979C36.3393 79.987 37.1313 80.779 38.1393 81.355C39.1473 81.913 40.2813 82.192 41.5413 82.192ZM59.2209 69.043V74.794H68.3469V77.764H59.2209V85H55.7109V66.1H69.5079V69.043H59.2209ZM76.6823 69.043V74.794H85.8083V77.764H76.6823V85H73.1723V66.1H86.9693V69.043H76.6823Z" fill="white"/>
</svg>
