<svg width="118" height="118" viewBox="0 0 118 118" fill="none" xmlns="http://www.w3.org/2000/svg">
<path d="M59 118C91.5848 118 118 91.5848 118 59C118 26.4152 91.5848 0 59 0C26.4152 0 0 26.4152 0 59C0 91.5848 26.4152 118 59 118Z" fill="black"/>
<path d="M52.6919 44.44C52.6919 46.1893 52.0519 47.6933 50.7719 48.952C49.4919 50.1893 47.6465 50.9573 45.2359 51.256V54.84H42.0359V51.352C40.4572 51.2667 38.9532 50.9893 37.5239 50.52C36.0945 50.0507 34.9425 49.4747 34.0679 48.792L35.8279 44.888C36.6385 45.4853 37.5879 45.9867 38.6759 46.392C39.7639 46.7973 40.8839 47.0533 42.0359 47.16V41.816C40.5212 41.4533 39.2412 41.048 38.1959 40.6C37.1505 40.152 36.2759 39.5013 35.5719 38.648C34.8679 37.7733 34.5159 36.6213 34.5159 35.192C34.5159 33.4213 35.1559 31.9067 36.4359 30.648C37.7372 29.368 39.6039 28.5893 42.0359 28.312V24.76H45.2359V28.248C47.8599 28.4613 50.0252 29.112 51.7319 30.2L50.1319 34.136C48.5319 33.2187 46.8999 32.664 45.2359 32.472V37.912C46.7292 38.2533 47.9879 38.648 49.0119 39.096C50.0572 39.5227 50.9319 40.1733 51.6359 41.048C52.3399 41.9013 52.6919 43.032 52.6919 44.44ZM39.6679 34.936C39.6679 35.4693 39.8705 35.9067 40.2759 36.248C40.6812 36.5893 41.2679 36.8773 42.0359 37.112V32.568C41.2252 32.76 40.6279 33.0693 40.2439 33.496C39.8599 33.9013 39.6679 34.3813 39.6679 34.936ZM45.2359 47.032C46.0039 46.8613 46.5799 46.584 46.9639 46.2C47.3479 45.816 47.5399 45.3573 47.5399 44.824C47.5399 44.2907 47.3372 43.8533 46.9319 43.512C46.5479 43.1707 45.9825 42.872 45.2359 42.616V47.032ZM63.1536 28.6V51H57.9696V32.76H53.4896V28.6H63.1536ZM74.7249 37.016C77.8822 37.016 80.2075 37.6453 81.7009 38.904C83.2155 40.1627 83.9729 41.848 83.9729 43.96C83.9729 45.3253 83.6315 46.5733 82.9489 47.704C82.2662 48.8133 81.2209 49.7093 79.8129 50.392C78.4262 51.0533 76.7089 51.384 74.6609 51.384C73.0822 51.384 71.5249 51.1813 69.9889 50.776C68.4742 50.3493 67.1835 49.752 66.1169 48.984L68.1649 45.016C69.0182 45.656 69.9995 46.1573 71.1089 46.52C72.2182 46.8613 73.3595 47.032 74.5329 47.032C75.8342 47.032 76.8582 46.776 77.6049 46.264C78.3515 45.752 78.7249 45.0373 78.7249 44.12C78.7249 43.16 78.3302 42.4347 77.5409 41.944C76.7729 41.4533 75.4289 41.208 73.5089 41.208H67.7809L68.9329 28.6H82.5969V32.76H73.2529L72.9009 37.016H74.7249ZM38.5665 90.384C36.2412 90.384 34.1398 89.8827 32.2625 88.88C30.4065 87.8773 28.9452 86.5013 27.8785 84.752C26.8332 82.9813 26.3105 80.9973 26.3105 78.8C26.3105 76.6027 26.8332 74.6293 27.8785 72.88C28.9452 71.1093 30.4065 69.7227 32.2625 68.72C34.1398 67.7173 36.2412 67.216 38.5665 67.216C40.8918 67.216 42.9825 67.7173 44.8385 68.72C46.6945 69.7227 48.1558 71.1093 49.2225 72.88C50.2892 74.6293 50.8225 76.6027 50.8225 78.8C50.8225 80.9973 50.2892 82.9813 49.2225 84.752C48.1558 86.5013 46.6945 87.8773 44.8385 88.88C42.9825 89.8827 40.8918 90.384 38.5665 90.384ZM38.5665 85.968C39.8892 85.968 41.0838 85.6693 42.1505 85.072C43.2172 84.4533 44.0492 83.6 44.6465 82.512C45.2652 81.424 45.5745 80.1867 45.5745 78.8C45.5745 77.4133 45.2652 76.176 44.6465 75.088C44.0492 74 43.2172 73.1573 42.1505 72.56C41.0838 71.9413 39.8892 71.632 38.5665 71.632C37.2438 71.632 36.0492 71.9413 34.9825 72.56C33.9158 73.1573 33.0732 74 32.4545 75.088C31.8572 76.176 31.5585 77.4133 31.5585 78.8C31.5585 80.1867 31.8572 81.424 32.4545 82.512C33.0732 83.6 33.9158 84.4533 34.9825 85.072C36.0492 85.6693 37.2438 85.968 38.5665 85.968ZM59.9025 71.76V77.68H70.2705V81.84H59.9025V90H54.7185V67.6H71.6465V71.76H59.9025ZM80.34 71.76V77.68H90.708V81.84H80.34V90H75.156V67.6H92.084V71.76H80.34Z" fill="white"/>
</svg>
