<svg width="76" height="76" fill="none" xmlns="http://www.w3.org/2000/svg"><circle cx="38" cy="38" r="38" fill="#fff"/><path d="M45.532 30.868c-.366-.376-.959-.401-1.33-.03l-2.838 2.844a.962.962 0 00-.283.684.962.962 0 00.964.967c.257 0 .499-.1.682-.283l2.839-2.845a.928.928 0 00-.013-1.315l-.02-.022zM59.41 16H48.833c-.514 0-.963.387-.996.9a.967.967 0 00.962 1.033h8.283l-5.532 5.543a.963.963 0 00.07 1.415c.368.337.943.303 1.297-.05l5.53-5.541v8.266c0 .515.386.964.898.998a.967.967 0 001.03-.964V16.967A.967.967 0 0059.41 16zM48.799 60.465a.967.967 0 010-1.933h8.283L41.365 42.783a.962.962 0 01-.282-.684.964.964 0 011.645-.684l15.717 15.75v-8.3c0-.532.433-.966.965-.966s.965.434.965.967v10.633a.967.967 0 01-.965.966H48.799zm-14.47-25.132c-.257 0-.5-.1-.682-.283L17.93 19.3v8.3a.967.967 0 01-.964.966A.967.967 0 0116 27.6V16.967c0-.533.433-.967.965-.967h10.611a.967.967 0 010 1.933h-8.283l15.718 15.75a.962.962 0 01.282.683.961.961 0 01-.964.967zM16.965 60.465A.967.967 0 0116 59.5V48.866c0-.533.433-.967.965-.967.531 0 .964.434.964.967v8.3l15.717-15.75a.958.958 0 01.683-.283.961.961 0 01.965.967c0 .258-.1.5-.283.683l-15.718 15.75h8.283a.967.967 0 010 1.932H16.965zm31.582-31.648a.977.977 0 00.685-.284.98.98 0 00.283-.687.98.98 0 00-.283-.686.976.976 0 00-.685-.284.976.976 0 00-.685.284.98.98 0 00-.284.686c0 .257.104.507.284.687.18.18.43.284.685.284z" fill="#000"/></svg>