<svg width="118" height="118" viewBox="0 0 118 118" fill="none" xmlns="http://www.w3.org/2000/svg">
<path d="M59 118C91.5848 118 118 91.5848 118 59C118 26.4152 91.5848 0 59 0C26.4152 0 0 26.4152 0 59C0 91.5848 26.4152 118 59 118Z" fill="black"/>
<path d="M50.4016 46.654C50.4016 48.112 49.8616 49.354 48.7816 50.38C47.7196 51.388 46.1716 52 44.1376 52.216V55.24H41.9236V52.243C40.5916 52.153 39.3316 51.91 38.1436 51.514C36.9556 51.118 36.0106 50.614 35.3086 50.002L36.5236 47.275C37.1896 47.815 37.9996 48.274 38.9536 48.652C39.9076 49.012 40.8976 49.237 41.9236 49.327V43.927C40.6456 43.621 39.5746 43.288 38.7106 42.928C37.8646 42.55 37.1536 42.01 36.5776 41.308C36.0016 40.588 35.7136 39.643 35.7136 38.473C35.7136 37.015 36.2446 35.773 37.3066 34.747C38.3686 33.721 39.9076 33.109 41.9236 32.911V29.86H44.1376V32.857C45.1456 32.911 46.1266 33.082 47.0806 33.37C48.0526 33.658 48.8986 34.036 49.6186 34.504L48.5116 37.231C47.1436 36.439 45.6856 35.953 44.1376 35.773V41.227C45.4336 41.533 46.5046 41.866 47.3506 42.226C48.2146 42.586 48.9346 43.126 49.5106 43.846C50.1046 44.548 50.4016 45.484 50.4016 46.654ZM39.1966 38.311C39.1966 38.905 39.4306 39.382 39.8986 39.742C40.3666 40.102 41.0416 40.408 41.9236 40.66V35.854C41.0056 35.998 40.3216 36.286 39.8716 36.718C39.4216 37.15 39.1966 37.681 39.1966 38.311ZM44.1376 49.273C45.0916 49.129 45.7936 48.85 46.2436 48.436C46.7116 48.022 46.9456 47.509 46.9456 46.897C46.9456 46.285 46.7026 45.799 46.2166 45.439C45.7306 45.061 45.0376 44.746 44.1376 44.494V49.273ZM66.491 49.03V52H52.559V49.651L60.065 42.523C60.911 41.713 61.478 41.011 61.766 40.417C62.072 39.805 62.225 39.202 62.225 38.608C62.225 37.726 61.928 37.051 61.334 36.583C60.74 36.115 59.867 35.881 58.715 35.881C56.789 35.881 55.313 36.538 54.287 37.852L51.83 35.962C52.568 34.972 53.558 34.207 54.8 33.667C56.06 33.109 57.464 32.83 59.012 32.83C61.064 32.83 62.702 33.316 63.926 34.288C65.15 35.26 65.762 36.583 65.762 38.257C65.762 39.283 65.546 40.246 65.114 41.146C64.682 42.046 63.854 43.072 62.63 44.224L57.581 49.03H66.491ZM74.9699 40.417C77.6339 40.417 79.6049 40.939 80.8829 41.983C82.1609 43.009 82.7999 44.413 82.7999 46.195C82.7999 47.329 82.5209 48.355 81.9629 49.273C81.4049 50.191 80.5679 50.92 79.4519 51.46C78.3359 52 76.9589 52.27 75.3209 52.27C73.9709 52.27 72.6659 52.081 71.4059 51.703C70.1459 51.307 69.0839 50.767 68.2199 50.083L69.7049 47.356C70.4069 47.932 71.2439 48.391 72.2159 48.733C73.2059 49.057 74.2229 49.219 75.2669 49.219C76.5089 49.219 77.4809 48.967 78.1829 48.463C78.9029 47.941 79.2629 47.23 79.2629 46.33C79.2629 45.358 78.8759 44.629 78.1019 44.143C77.3459 43.639 76.0409 43.387 74.1869 43.387H69.6239L70.5959 33.1H81.6929V36.043H73.5659L73.1609 40.417H74.9699ZM41.5413 85.27C39.6153 85.27 37.8783 84.856 36.3303 84.028C34.7823 83.182 33.5673 82.021 32.6853 80.545C31.8033 79.051 31.3623 77.386 31.3623 75.55C31.3623 73.714 31.8033 72.058 32.6853 70.582C33.5673 69.088 34.7823 67.927 36.3303 67.099C37.8783 66.253 39.6153 65.83 41.5413 65.83C43.4673 65.83 45.2043 66.253 46.7523 67.099C48.3003 67.927 49.5153 69.079 50.3973 70.555C51.2793 72.031 51.7203 73.696 51.7203 75.55C51.7203 77.404 51.2793 79.069 50.3973 80.545C49.5153 82.021 48.3003 83.182 46.7523 84.028C45.2043 84.856 43.4673 85.27 41.5413 85.27ZM41.5413 82.192C42.8013 82.192 43.9353 81.913 44.9433 81.355C45.9513 80.779 46.7433 79.987 47.3193 78.979C47.8953 77.953 48.1833 76.81 48.1833 75.55C48.1833 74.29 47.8953 73.156 47.3193 72.148C46.7433 71.122 45.9513 70.33 44.9433 69.772C43.9353 69.196 42.8013 68.908 41.5413 68.908C40.2813 68.908 39.1473 69.196 38.1393 69.772C37.1313 70.33 36.3393 71.122 35.7633 72.148C35.1873 73.156 34.8993 74.29 34.8993 75.55C34.8993 76.81 35.1873 77.953 35.7633 78.979C36.3393 79.987 37.1313 80.779 38.1393 81.355C39.1473 81.913 40.2813 82.192 41.5413 82.192ZM59.2209 69.043V74.794H68.3469V77.764H59.2209V85H55.7109V66.1H69.5079V69.043H59.2209ZM76.6823 69.043V74.794H85.8083V77.764H76.6823V85H73.1723V66.1H86.9693V69.043H76.6823Z" fill="white"/>
</svg>
