<svg width="34" height="25" fill="none" xmlns="http://www.w3.org/2000/svg"><path d="M33.91 14.888l-5.1-7.933a.567.567 0 00-.477-.26h-5.667v-3.4a.566.566 0 00-.566-.567H.566A.567.567 0 000 3.295V21.43c0 .313.254.566.566.566h4.015a3.404 3.404 0 003.353 2.834 3.405 3.405 0 003.352-2.834h12.562A3.404 3.404 0 0027.2 24.83a3.405 3.405 0 003.352-2.834h2.882A.566.566 0 0034 21.43v-6.234a.565.565 0 00-.09-.307zm-4.444-4.815l2.564 3.989h-7.096v-3.967h4.533v-.022zM7.934 23.695a2.269 2.269 0 01-2.267-2.266 2.269 2.269 0 012.267-2.267A2.269 2.269 0 0110.2 21.43a2.269 2.269 0 01-2.266 2.266zm0-5.667a3.405 3.405 0 00-3.353 2.834H1.134v-1.134H3.4a.567.567 0 000-1.133H1.134V3.862h20.4v1.133h-18.7a.567.567 0 000 1.133h18.7v12.467h-9.068a.567.567 0 000 1.133h9.067v1.134H11.285a3.404 3.404 0 00-3.351-2.834zM27.2 23.695a2.269 2.269 0 01-2.266-2.266 2.268 2.268 0 012.266-2.267 2.269 2.269 0 012.266 2.267 2.269 2.269 0 01-2.266 2.266zm3.352-2.833a3.404 3.404 0 00-3.352-2.834 3.405 3.405 0 00-3.352 2.834h-1.182V7.828h5.357l.73 1.134h-4.386a.566.566 0 00-.566.566v5.1c0 .314.253.567.566.567h8.393l.107.166v3.234h-1.133a.567.567 0 000 1.133h1.133v1.133h-2.315z" fill="#881616"/><path d="M7.934 21.995a.566.566 0 100-1.133.566.566 0 000 1.133zm19.357-.008a.566.566 0 10-.181-1.118.566.566 0 00.181 1.118zM2.833 1.595h6.8a.567.567 0 000-1.133h-6.8a.567.567 0 000 1.133zm-2.267 0a.567.567 0 100-1.133.567.567 0 000 1.133z" fill="#881616"/></svg>