<svg width="76" height="76" fill="none" xmlns="http://www.w3.org/2000/svg"><circle cx="38" cy="38" r="38" fill="#fff"/><path d="M24.046 40.741c-.043 0 .043.005 0 0z" fill="#000"/><path d="M64.004 54.426a46.8 46.8 0 01-10.14-1.112c.443-1.224.68-2.53.694-3.872.03-3.068-1.116-5.93-3.227-8.06a11.48 11.48 0 00-5.06-2.974l-.05-.013a33.03 33.03 0 01-12.955-6.98.998.998 0 00-1.403.09.984.984 0 00.092 1.395 35.568 35.568 0 004.34 3.24 11.414 11.414 0 011.283 5.613.99.99 0 00.963 1.017h.031a.99.99 0 00.993-.958 13.423 13.423 0 00-.514-4.1 35.024 35.024 0 005.116 2.125 11.402 11.402 0 011.703 5.45c.026.528.465.94.992.94.016 0 .032 0 .048-.002a.99.99 0 00.945-1.033 13.307 13.307 0 00-1.023-4.5 9.53 9.53 0 013.084 2.078c2.675 2.698 3.34 6.681 2.012 10.073-10.531-2.808-19.894-9.235-26.275-18.344a.998.998 0 00-1.384-.246.984.984 0 00-.247 1.376 48.995 48.995 0 0017.08 15.095 48.53 48.53 0 009.891 3.92c-.337.51-.727.995-1.172 1.446-2.079 1.974-5.198 2.76-7.952 2.004a32.53 32.53 0 01-9.121-4.103 13.493 13.493 0 002.721-.557.987.987 0 00.647-1.24.995.995 0 00-1.248-.644c-1.586.5-3.224.648-4.87.443a32.125 32.125 0 01-9.222-12.06c1.024.397 2.158.672 3.269.81.493 0 .984-.36 1.047-.861a.989.989 0 00-.861-1.103 11.363 11.363 0 01-4.507-1.56c-2.531-7.506-2.29-15.839.97-23.292a35.066 35.066 0 005.252 12.211.999.999 0 001.38.264.986.986 0 00.266-1.372 33.076 33.076 0 01-5.452-14.39.996.996 0 00-1.856-.353 34.045 34.045 0 00-3.712 10.342 34.319 34.319 0 00-.263 10.846c1.015 7.514 4.41 14.326 9.815 19.7A34.616 34.616 0 0041.34 60a10.02 10.02 0 002.645.351c2.636 0 5.276-1.002 7.2-2.822l.032-.03.028-.03c.69-.701 1.28-1.478 1.763-2.314a49.117 49.117 0 0010.997 1.25.992.992 0 00.994-.989.994.994 0 00-.996-.99z" fill="#000"/><path d="M29.511 30.08a.994.994 0 00.993-.987.994.994 0 00-.29-.699 1.006 1.006 0 00-.703-.289.994.994 0 00-.993.987.991.991 0 00.993.988z" fill="#000"/></svg>