<svg fill="none" height="46" viewBox="0 0 848 174" width="225" xmlns="http://www.w3.org/2000/svg"><g fill="#000"><path d="m89.1219 161.309c-36.5837 0-63.787-30.011-63.787-79.4041 0-43.7661 23.1385-77.21583 57.2207-77.21583 10.0058 0 19.0734 2.81354 27.5164 7.81533 20.949 15.0055 18.448 38.4516 18.448 38.4516h3.127c.625-10.0036 14.696-22.5082 14.696-22.5082l-1.251-1.2505c-13.445-15.6307-36.584-26.572213-61.911-26.572213-46.5895-.312614-83.798594 35.325413-83.17323144 86.906913 0 50.018 33.45693144 83.781 79.10833144 83.781 30.0179 0 53.4689-14.381 68.7899-39.39l-2.814-1.563c-13.758 21.258-34.395 30.949-55.9701 30.949z"/><path d="m283.922 67.2127-80.671 32.8243v-15.3179-4.0639-76.90325h-23.139v164.74805h23.139v-64.086l80.671-32.8247v9.0659 4.0639 83.7809h22.826v-164.74805h-22.826z"/><path d="m406.495 0-39.398 96.2853-1.876 4.3767c-10.318 25.009-20.011 48.768-29.392 67.837h15.634c.626-14.38 4.065-29.073 13.445-54.082h64.413l21.575 54.082h25.014l-68.477-168.499zm-40.023 110.353 5.003-12.5046 25.64-63.1482 30.642 75.6528z"/><path d="m613.177 45.3297c0-27.8227-23.138-41.57775-66.914-41.57775h-40.648v164.74805h23.138v-74.4024h15.009c6.253 0 8.442 1.2504 11.882 4.6892l66.914 74.7152h1.25v-28.761l-50.654-56.2705c24.702-8.4406 40.023-21.5704 40.023-43.1408zm-63.162 45.0165c-6.253 0-15.946-.3126-20.949-1.2505v-81.90499h16.572c29.079 0 44.401 15.00549 44.401 39.70209 0 23.7587-16.26 43.4534-40.024 43.4534z"/><path d="m682.279 3.75195h-23.139v164.74805h23.139z"/><path d="m801.098 63.4613c16.572-23.446 32.206-43.4534 46.902-59.70935h-17.823c-3.752 13.44245-14.383 30.94885-32.519 57.20845l-6.253 8.7532-52.218-65.96165h-29.392l65.976 82.84285-15.322 21.8832c-19.386 26.885-35.645 47.205-47.84 60.022h24.077c3.439-17.194 12.819-36.576 27.515-57.521l15.009-20.9454 66.601 83.1554h1.251v-33.45l-52.843-66.274z"/></g></svg>