<svg fill="#F1B258" height="512" width="512" xmlns="http://www.w3.org/2000/svg"><path d="M437.02 74.98C388.668 26.629 324.38 0 256 0 190.516 0 128.2 24.722 80.535 69.61l10.283 10.92C135.69 38.272 194.354 15 256 15c64.374 0 124.894 25.068 170.413 70.587S497 191.626 497 256s-25.068 124.894-70.587 170.413S320.374 497 256 497s-124.894-25.068-170.413-70.587S15 320.374 15 256c0-61.649 23.272-120.312 65.53-165.182L69.61 80.534C24.722 128.198 0 190.514 0 256c0 68.38 26.629 132.667 74.98 181.02C123.332 485.371 187.62 512 256 512s132.668-26.629 181.02-74.98C485.371 388.667 512 324.38 512 256s-26.629-132.667-74.98-181.02z"/><path d="M85.603 107.539C49.746 148.657 30 201.381 30 256c0 60.371 23.507 117.126 66.19 159.81C138.874 458.493 195.629 482 256 482c54.619 0 107.344-19.746 148.462-55.602l6.052-5.278L90.88 101.486zM344.18 376H263.5v-80.68zm-127.5-127.5h-16.93v-16.93zm-31.93-31.93v31.93H121V391h48.75v-15H136V263.5h95.68l16.82 16.82V376h-33.749v15H359.18l29.262 29.262C351.021 450.458 304.305 467 256 467c-56.364 0-109.353-21.947-149.203-61.797C66.946 365.353 45 312.365 45 256c0-48.304 16.542-95.021 46.738-132.442zm241.648 187.891C462.254 363.341 482 310.616 482 256c0-60.371-23.507-117.126-66.19-159.81C373.126 53.507 316.371 30 256 30c-54.615 0-107.34 19.746-148.461 55.602l-6.053 5.278L421.12 410.514zM376 344.181L295.32 263.5H376zM312.25 248.5h-31.93l-80.57-80.57V136h112.5zM391 359.181V248.5h-63.75V121h-142.5v31.93l-61.191-61.192C160.981 61.542 207.698 45 256 45c56.364 0 109.353 21.947 149.203 61.797C445.054 146.647 467 199.635 467 256c0 48.302-16.542 95.019-46.739 132.441z"/><path d="M184.75 376h15v15h-15zm97.5-225h15v15h-15zm-30 0h15v15h-15z"/></svg>