<svg width="30" height="30" fill="none" xmlns="http://www.w3.org/2000/svg"><path d="M5.151 18.351c-.026 0 .027.003 0 0z" fill="#881616"/><path d="M28.831 26.46c-2.042 0-4.055-.224-6.01-.658a6.93 6.93 0 00.412-2.295c.018-1.818-.661-3.514-1.912-4.776a6.802 6.802 0 00-3-1.763l-.029-.007a19.574 19.574 0 01-7.677-4.137.592.592 0 00-.831.054.583.583 0 00.054.826 21.04 21.04 0 002.572 1.92 6.763 6.763 0 01.76 3.327.586.586 0 00.571.602h.019c.317 0 .579-.25.588-.567a7.953 7.953 0 00-.305-2.43c.971.497 1.983.918 3.032 1.26a6.757 6.757 0 011.01 3.229.588.588 0 00.587.557h.029a.587.587 0 00.56-.613 7.884 7.884 0 00-.607-2.667 5.651 5.651 0 011.828 1.231c1.586 1.6 1.98 3.96 1.193 5.97a27.734 27.734 0 01-15.572-10.87.591.591 0 00-.82-.147.583.583 0 00-.146.816 29.036 29.036 0 0010.121 8.945 28.76 28.76 0 005.863 2.324c-.2.302-.431.589-.695.856-1.232 1.17-3.08 1.636-4.712 1.188a19.275 19.275 0 01-5.406-2.432 8 8 0 001.613-.33.585.585 0 10-.356-1.116 6.75 6.75 0 01-2.886.262 19.04 19.04 0 01-5.465-7.147 8.283 8.283 0 001.937.48c.292 0 .583-.214.62-.51a.586.586 0 00-.51-.654 6.734 6.734 0 01-2.671-.924c-1.5-4.448-1.357-9.387.574-13.803a20.78 20.78 0 003.113 7.236.592.592 0 00.818.157.584.584 0 00.157-.813A19.6 19.6 0 014.022.51a.59.59 0 00-1.1-.21 20.177 20.177 0 00-2.2 6.13 20.338 20.338 0 00-.156 6.428c.602 4.453 2.614 8.49 5.817 11.675a20.515 20.515 0 009.018 5.23c.51.14 1.039.208 1.567.208 1.562 0 3.127-.594 4.266-1.673l.02-.017.016-.018a6.846 6.846 0 001.045-1.372c2.13.49 4.32.741 6.517.741.325 0 .59-.262.59-.586a.59.59 0 00-.59-.586z" fill="#881616"/><path d="M8.39 12.033a.589.589 0 00.588-.585.589.589 0 00-1.177 0 .588.588 0 00.589.585z" fill="#881616"/></svg>